<?xml version="1.0" encoding="UTF-8" standalone="no"?>
<!-- Created with Inkscape (http://www.inkscape.org/) -->

<svg
   xmlns:dc="http://purl.org/dc/elements/1.1/"
   xmlns:cc="http://creativecommons.org/ns#"
   xmlns:rdf="http://www.w3.org/1999/02/22-rdf-syntax-ns#"
   xmlns:svg="http://www.w3.org/2000/svg"
   xmlns="http://www.w3.org/2000/svg"
   xmlns:sodipodi="http://sodipodi.sourceforge.net/DTD/sodipodi-0.dtd"
   xmlns:inkscape="http://www.inkscape.org/namespaces/inkscape"
   width="300"
   height="300"
   viewBox="0 0 300 300"
   id="svg3538"
   version="1.1"
   inkscape:version="0.91 r13725"
   sodipodi:docname="icon-1.svg">
  <defs
     id="defs3540" />
  <sodipodi:namedview
     id="base"
     pagecolor="#ffffff"
     bordercolor="#666666"
     borderopacity="1.0"
     inkscape:pageopacity="0.0"
     inkscape:pageshadow="2"
     inkscape:zoom="1.2126953"
     inkscape:cx="276.04687"
     inkscape:cy="190.15622"
     inkscape:document-units="px"
     inkscape:current-layer="layer1"
     showgrid="false"
     units="px"
     inkscape:window-width="1215"
     inkscape:window-height="1000"
     inkscape:window-x="1345"
     inkscape:window-y="24"
     inkscape:window-maximized="1" />
  <metadata
     id="metadata3543">
    <rdf:RDF>
      <cc:Work
         rdf:about="">
        <dc:format>image/svg+xml</dc:format>
        <dc:type
           rdf:resource="http://purl.org/dc/dcmitype/StillImage" />
        <dc:title></dc:title>
      </cc:Work>
    </rdf:RDF>
  </metadata>
  <g
     inkscape:label="Layer 1"
     inkscape:groupmode="layer"
     id="layer1"
     transform="translate(0,-752.36216)">
    <path
       sodipodi:type="star"
       style="fill:#209cb9;fill-opacity:1"
       id="path5276-8-2"
       sodipodi:sides="3"
       sodipodi:cx="119.6695"
       sodipodi:cy="884.98015"
       sodipodi:r1="133.25438"
       sodipodi:r2="66.62719"
       sodipodi:arg1="1.5707963"
       sodipodi:arg2="2.6179939"
       inkscape:flatsided="true"
       inkscape:rounded="0"
       inkscape:randomized="0"
       d="M 119.66951,1018.2345 4.2678229,818.35298 235.07118,818.35297 Z"
       inkscape:transform-center-y="33.313767"
       inkscape:transform-center-x="-4.3549537e-05" />
    <path
       style="fill:#000000;fill-opacity:1;fill-rule:evenodd;stroke:none;stroke-width:1.30832088px;stroke-linecap:butt;stroke-linejoin:miter;stroke-opacity:1"
       d="m 106.11292,924.87088 c -2.3039,-1.10159 -25.051846,13.10755 -40.639091,17.12465 -0.993461,0.25608 -1.839944,-1.12798 -2.300332,-2.04472 -1.004843,-2.0011 -0.981096,-2.03602 -1.498752,-3.39513 -0.403583,-1.05964 -1.207955,-3.35345 -0.162551,-3.63359 13.55759,-6.15405 31.123789,-14.5778 45.111926,-24.40905 2.19676,-1.54391 3.38065,-4.80604 6.0064,-5.36741 1.92348,-0.4112 3.72712,1.26538 5.62303,1.78919 2.15124,0.59437 4.2885,1.64506 6.5176,1.53352 1.43961,-0.0723 2.39707,-1.84512 4.08946,-1.40578 0.64907,0.36622 3.58196,5.85465 5.75078,8.05114 3.54087,3.5861 22.84567,20.03675 34.93519,31.05111 0.30306,0.65652 0.045,2.16877 0.045,2.16877 0,0 -0.46386,1.41231 -0.85849,2.03323 -0.43472,0.68404 -0.99646,1.29756 -1.62658,1.80729 -0.44586,0.36071 -0.94375,0.687 -1.491,0.85849 -0.67793,0.21237 -1.44583,0.39355 -2.12361,0.18072 -9.98929,-7.1977 -30.14693,-27.3615 -32.45896,-26.98135 -1.47309,0.77933 0.0913,20.89202 0.76677,31.30992 1.81681,28.0217 7.76972,67.35192 8.82976,83.77772 0.082,2.2151 -1.22901,1.9375 -2.23654,2.1687 -1.39161,0.3193 -2.43107,0.511 -3.90825,0.6326 -1.26393,0.104 -2.39893,0.09 -3.75019,0.09 -1.40905,-2e-4 -2.82901,0.1909 -2.851,-1.4008 -0.0134,-8.0283 -1.13816,-17.9186 -2.1236,-26.8385 -0.58797,-5.3223 -1.58557,-10.5922 -2.25911,-15.90429 -0.85403,-6.73524 -1.24587,-13.40819 -2.25914,-20.24182 -0.14832,-1.00008 -3.99713,-0.87586 -5.46262,-0.27109 -0.91126,0.6366 -1.43035,13.18982 -1.80072,19.56341 -0.30271,5.20929 -0.23167,2.88429 -0.37203,7.95209 -0.0886,3.1968 -0.27186,8.5465 -0.4323,11.7406 -0.17242,3.4328 -0.52117,6.6079 -0.73846,10.0382 -0.34584,5.4598 -0.40596,10.8406 -0.81326,16.4916 -0.10538,1.4621 -2.83263,0.7704 -4.38271,0.8586 -1.7746,0.1009 -3.58795,-0.152 -5.28641,-0.044 -1.44075,0.09 -2.95255,-0.3225 -2.801327,-1.5363 0.964697,-7.7809 2.938327,-35.2581 3.441547,-44.30406 0.747,-13.4271 1.47014,-25.12603 1.47014,-25.12603 l 0.79688,-12.88469 c 0,0 3.83401,-34.82364 1.25234,-35.43272 z"
       id="path3594-3-7"
       inkscape:connector-curvature="0"
       sodipodi:nodetypes="cssscsssscsccsssccscssscssscssssssscscccc" />
    <g
       style="font-style:normal;font-variant:normal;font-weight:normal;font-stretch:normal;font-size:500px;line-height:125%;font-family:IranNastaliq-Web;-inkscape-font-specification:IranNastaliq-Web;letter-spacing:0px;word-spacing:0px;fill:#ff6600;fill-opacity:1;stroke:none;stroke-width:1px;stroke-linecap:butt;stroke-linejoin:miter;stroke-opacity:1"
       id="text3336-4-6-0"
       transform="matrix(0.43188317,0,0,0.43188317,-678.57206,668.33751)">
      <path
         d="m 1911.1675,465.04027 q 4.4985,7.55663 4.4985,14.89734 0,7.34071 -5.1733,15.54504 -5.3981,8.20433 -15.2947,25.4766 -9.8967,17.27227 -15.7447,26.77201 -6.0729,9.49975 -18.4437,18.9995 -7.6474,11.44288 -21.5926,33.68093 -15.5197,-10.79517 -24.2917,-25.90841 -8.772,-14.89733 -8.772,-18.78359 0,-10.36336 5.3982,-21.59034 5.1732,-11.01107 10.7963,-14.46552 5.3981,-3.45446 16.8692,-3.45446 l 17.7689,0 q 17.3191,0 32.8388,-19.86311 l 20.468,-30.44237 0.6748,-0.86362 z"
         style="font-style:normal;font-variant:normal;font-weight:normal;font-stretch:normal;font-size:500px;font-family:IranNastaliq-Web;-inkscape-font-specification:IranNastaliq-Web;fill:#ff6600;fill-opacity:1"
         id="path5080-2-7-9"
         inkscape:connector-curvature="0" />
      <path
         d="m 1950.529,492.46 -23.1671,-0.86361 c -8.697,0 -14.0952,1.07951 -16.1944,3.23855 -3.8987,-3.31052 -5.848,-7.84449 -5.848,-13.60191 0,-5.61348 3.7487,-13.24208 11.2461,-22.88576 7.4975,-9.64369 14.0952,-16.84047 19.7932,-21.59034 10.6464,-8.92401 21.7426,-13.38601 33.2886,-13.38601 5.2482,0 9.4468,0.28788 12.5958,0.86362 5.698,0.43181 9.1468,9.49975 10.3464,27.20382 l 0,5.61349 c 0,14.82537 -3.4488,25.54857 -10.3464,32.1696 -10.0466,2.15904 -20.6179,3.23855 -31.7142,3.23855 z"
         style="font-style:normal;font-variant:normal;font-weight:normal;font-stretch:normal;font-size:500px;font-family:IranNastaliq-Web;-inkscape-font-specification:IranNastaliq-Web;fill:#ff6600;fill-opacity:1"
         id="path5082-7-5-3"
         inkscape:connector-curvature="0"
         sodipodi:nodetypes="cccsscsccscc" />
      <path
         d="m 2244.9532,234.23959 q 4.9484,-1.94314 7.1976,-1.94314 2.2493,0 2.2493,1.29542 0,1.29543 -3.5988,3.45446 -3.3739,1.94313 -33.7385,20.72672 -30.1396,18.56769 -54.2064,43.39658 -24.2917,25.04478 -57.3554,70.38449 -27.4406,39.72622 -38.012,52.03271 -22.0425,25.6925 -33.9633,36.05586 -22.9423,20.07902 -51.0577,29.57876 -10.1215,-13.1701 -10.1215,-29.36285 0,-16.19276 10.1215,-35.62406 38.0121,-5.61349 64.3281,-27.63563 26.0911,-21.80624 49.7079,-52.24862 23.617,-30.44236 41.8358,-47.28283 18.2187,-16.84046 50.6076,-35.83996 32.389,-19.21539 56.0058,-26.98791 z"
         style="font-style:normal;font-variant:normal;font-weight:normal;font-stretch:normal;font-size:500px;font-family:IranNastaliq-Web;-inkscape-font-specification:IranNastaliq-Web;fill:#ff6600;fill-opacity:1"
         id="path5084-5-35-6"
         inkscape:connector-curvature="0" />
    </g>
    <g
       style="font-style:normal;font-variant:normal;font-weight:normal;font-stretch:normal;font-size:500px;line-height:125%;font-family:'Abyssinica SIL';-inkscape-font-specification:'Abyssinica SIL';letter-spacing:0px;word-spacing:0px;fill:#000000;fill-opacity:1;stroke:none;stroke-width:1px;stroke-linecap:butt;stroke-linejoin:miter;stroke-opacity:1"
       id="text3485-62-0"
       transform="matrix(0.51734682,0,0,0.51734682,-126.9706,513.78828)">
      <path
         d="m 507.51813,704.65527 c 0,4.23177 -0.8138,8.30078 -2.44141,12.20703 -1.46484,3.74349 -3.58073,6.9987 -6.34766,9.76563 -2.76693,2.76693 -6.02213,4.96419 -9.76562,6.5918 -3.58073,1.6276 -7.48698,2.4414 -11.71875,2.4414 -4.23177,0 -8.30078,-0.8138 -12.20703,-2.4414 -3.74349,-1.62761 -6.9987,-3.82487 -9.76563,-6.5918 -2.76693,-2.76693 -4.96419,-6.02214 -6.59179,-9.76563 -1.62761,-3.90625 -2.44141,-7.97526 -2.44141,-12.20703 0,-4.23177 0.8138,-8.2194 2.44141,-11.96289 1.6276,-3.74349 3.82486,-6.99869 6.59179,-9.76562 2.76693,-2.76693 6.02214,-4.88281 9.76563,-6.34766 3.90625,-1.6276 7.97526,-2.4414 12.20703,-2.4414 4.23177,0 8.13802,0.8138 11.71875,2.4414 3.74349,1.46485 6.99869,3.58073 9.76562,6.34766 2.76693,2.76693 4.88282,6.02213 6.34766,9.76562 1.62761,3.74349 2.44141,7.73112 2.44141,11.96289 z"
         id="path3507-91-6"
         inkscape:connector-curvature="0"
         sodipodi:nodetypes="scscscscssscscscs"
         style="fill:#000000" />
    </g>
  </g>
</svg>
